<svg data-v-423bf9ae="" xmlns="http://www.w3.org/2000/svg" viewBox="0 0 452 90" class="iconLeft"><!----><!----><!----><g data-v-423bf9ae="" id="fc274299-6e57-4859-96eb-7072ebb33b67" fill="#2F1911" transform="matrix(4.773269805623416,0,0,4.773269805623416,169.3710918252865,6.980906169483944)"><path d="M4.47 11.59C6.51 11.59 7.85 9.98 7.85 7.98C7.85 5.98 6.51 4.37 4.47 4.37C3.30 4.37 2.48 4.84 1.96 5.60L1.96 4.48L0.91 4.48L0.91 14.25L1.96 14.25L1.96 10.35C2.48 11.10 3.30 11.59 4.47 11.59ZM4.33 5.32C5.88 5.32 6.80 6.54 6.80 7.98C6.80 9.42 5.88 10.64 4.33 10.64C2.77 10.64 1.90 9.42 1.90 7.98C1.90 6.54 2.77 5.32 4.33 5.32ZM12.85 4.37C11.12 4.37 10.42 5.73 10.28 6.20L10.28 4.48L9.23 4.48L9.23 11.48L10.28 11.48L10.28 8.40C10.28 6.86 11.23 5.42 12.80 5.42L12.92 5.42L12.92 4.37ZM16.91 4.37C14.77 4.37 13.44 5.98 13.44 7.98C13.44 9.98 14.77 11.59 16.91 11.59C19.05 11.59 20.38 9.98 20.38 7.98C20.38 5.98 19.05 4.37 16.91 4.37ZM16.91 10.64C15.36 10.64 14.49 9.42 14.49 7.98C14.49 6.54 15.36 5.32 16.91 5.32C18.47 5.32 19.33 6.54 19.33 7.98C19.33 9.42 18.47 10.64 16.91 10.64ZM24.72 4.37C22.68 4.37 21.34 5.98 21.34 7.98C21.34 9.98 22.68 11.59 24.72 11.59C25.89 11.59 26.71 11.12 27.23 10.36L27.23 11.48L28.28 11.48L28.28 1.68L27.23 1.68L27.23 5.61C26.71 4.86 25.89 4.37 24.72 4.37ZM24.86 10.64C23.31 10.64 22.39 9.42 22.39 7.98C22.39 6.54 23.31 5.32 24.86 5.32C26.42 5.32 27.29 6.54 27.29 7.98C27.29 9.42 26.42 10.64 24.86 10.64ZM36.20 11.48L36.20 4.48L35.15 4.48L35.15 8.51C35.15 9.77 34.20 10.64 33.04 10.64C31.89 10.64 31.08 9.80 31.08 8.53L31.08 4.48L30.03 4.48L30.03 8.55C30.03 10.54 31.39 11.59 32.83 11.59C33.96 11.59 34.65 11.06 35.15 10.39L35.15 11.48ZM41.17 10.64C39.62 10.64 38.64 9.42 38.64 7.98C38.64 6.54 39.62 5.32 41.17 5.32C42.17 5.32 42.88 5.88 43.20 6.68L44.34 6.68C43.93 5.32 42.69 4.37 41.03 4.37C38.93 4.37 37.59 5.98 37.59 7.98C37.59 9.98 38.93 11.59 41.03 11.59C42.69 11.59 43.93 10.64 44.34 9.28L43.20 9.28C42.88 10.08 42.17 10.64 41.17 10.64ZM47.45 11.48L47.45 5.40L49.06 5.40L49.06 4.48L47.45 4.48L47.45 1.97L46.40 1.97L46.40 4.48L44.97 4.48L44.97 5.40L46.40 5.40L46.40 11.48ZM51.25 1.68L50.20 1.68L50.20 11.48L51.25 11.48ZM59.08 4.48L57.93 4.48L55.64 10.22L53.38 4.48L52.22 4.48L55.08 11.38L53.80 14.25L54.94 14.25Z"></path></g><defs data-v-423bf9ae=""><linearGradient data-v-423bf9ae="" gradientTransform="rotate(25)" id="f0715448-0f5b-4f4e-a0f7-92862df6a004" x1="0%" y1="0%" x2="100%" y2="0%"><stop data-v-423bf9ae="" offset="0%" style="stop-color: rgb(184, 41, 73); stop-opacity: 1;"></stop><stop data-v-423bf9ae="" offset="100%" style="stop-color: rgb(233, 184, 76); stop-opacity: 1;"></stop></linearGradient></defs><g data-v-423bf9ae="" id="df0f2c05-f9cf-4901-b529-fac7fd9d0345" transform="matrix(4.803586662404586,0,0,4.803586662404586,0.14261340152661717,-31.22538662899096)" stroke="none" fill="url(#f0715448-0f5b-4f4e-a0f7-92862df6a004)"><path d="M16 19.586l7.496-12.954H8.504zM7.496 12.414L0 25.368h14.992zM24.504 12.414l-7.496 12.954H32z"></path></g><!----></svg>